<svg width="36" height="42" viewBox="0 0 36 42" fill="none" xmlns="http://www.w3.org/2000/svg">
<path opacity="0.2" d="M16.0752 1.67676C17.4829 0.863978 19.2174 0.863977 20.6252 1.67676L33.7066 9.22931C35.1144 10.0421 35.9816 11.5442 35.9816 13.1698V28.2748C35.9816 29.9004 35.1144 31.4025 33.7066 32.2153L20.6252 39.7678C19.2174 40.5806 17.4829 40.5806 16.0752 39.7678L2.99377 32.2153C1.58598 31.4025 0.71875 29.9004 0.71875 28.2748V13.1698C0.71875 11.5442 1.58598 10.0421 2.99377 9.22931L16.0752 1.67676Z" fill="#2F90B0"/>
<path fill-rule="evenodd" clip-rule="evenodd" d="M21.4927 10.4923C21.4946 10.4476 21.4955 10.4027 21.4955 10.3575C21.4955 8.60782 20.0771 7.18945 18.3275 7.18945C16.5779 7.18945 15.1595 8.60782 15.1595 10.3575C15.1595 10.4047 15.1605 10.4516 15.1626 10.4983L10.5592 13.0629C10.4789 13.006 10.3952 12.9523 10.3083 12.9021C8.79304 12.0273 6.85551 12.5464 5.98069 14.0617C5.10586 15.5769 5.62502 17.5144 7.14026 18.3893C7.325 18.4959 7.51601 18.5819 7.7106 18.6478L7.71053 23.2187C7.51425 23.2849 7.32159 23.3714 7.13532 23.4789C5.62008 24.3537 5.10092 26.2913 5.97574 27.8065C6.85057 29.3217 8.7881 29.8409 10.3033 28.9661C10.5053 28.8495 10.6896 28.714 10.8552 28.5631L15.203 30.9853C15.1744 31.1565 15.1595 31.3322 15.1595 31.5115C15.1595 33.2612 16.5779 34.6795 18.3275 34.6795C20.0771 34.6795 21.4955 33.2612 21.4955 31.5115C21.4955 31.3342 21.481 31.1603 21.453 30.9909L25.8079 28.5647C25.9733 28.7152 26.1572 28.8504 26.3588 28.9668C27.874 29.8416 29.8116 29.3224 30.6864 27.8072C31.5612 26.292 31.0421 24.3544 29.5268 23.4796C29.3451 23.3747 29.1573 23.2898 28.966 23.2243L28.9661 18.6467C29.1593 18.5809 29.3489 18.4954 29.5323 18.3895C31.0476 17.5147 31.5667 15.5772 30.6919 14.0619C29.8171 12.5467 27.8795 12.0275 26.3643 12.9024C26.2764 12.9531 26.1918 13.0075 26.1107 13.0651L21.4927 10.4923ZM11.8382 26.779L16.1696 29.1921C16.4949 28.8893 16.884 28.6541 17.3145 28.5089V23.9369C16.8997 23.7971 16.5234 23.5736 16.2055 23.2867L11.8473 25.715C11.9049 26.0707 11.9005 26.4305 11.8382 26.779ZM10.8918 23.9156L15.2114 21.5088C15.1773 21.3225 15.1595 21.1305 15.1595 20.9343C15.1595 20.8318 15.1644 20.7304 15.1739 20.6303L10.6894 18.1317C10.4046 18.3566 10.0854 18.5288 9.74754 18.6439L9.74747 23.2259C10.1682 23.37 10.5598 23.6027 10.8918 23.9156ZM26.9291 18.6456C26.5054 18.5018 26.1109 18.2684 25.7768 17.9538L21.4449 20.3674C21.4782 20.5513 21.4955 20.7408 21.4955 20.9343C21.4955 21.0341 21.4909 21.1328 21.4819 21.2303L25.9792 23.7361C26.2662 23.5096 26.5883 23.3367 26.9291 23.2217L26.9291 18.6456ZM24.8206 16.1548C24.7426 15.675 24.7776 15.1877 24.9153 14.7308L20.7436 12.4067C20.3775 12.8378 19.8982 13.1697 19.3515 13.3564V17.9354C19.7644 18.0764 20.1389 18.3002 20.4552 18.5871L24.8206 16.1548ZM11.8841 15.8826L16.416 18.4077C16.6852 18.2038 16.9879 18.0419 17.3145 17.9317V13.3601C16.765 13.1748 16.283 12.8429 15.915 12.4109L11.7564 14.7276C11.8688 15.0993 11.9132 15.4911 11.8841 15.8826ZM24.8242 26.781C24.7773 26.5197 24.7631 26.252 24.7831 25.9844L20.2454 23.4561C19.9776 23.66 19.6764 23.8223 19.3515 23.9332V28.5126C19.7794 28.6587 20.1662 28.8938 20.4896 29.1959L24.8242 26.781Z" fill="#2F90B0"/>
</svg>
